<?xml version="1.0" encoding="UTF-8"?>
<svg xmlns="http://www.w3.org/2000/svg" xmlns:xlink="http://www.w3.org/1999/xlink" version="1.1" viewBox="0 0 841.89 595.28">
  <defs>
    <style>
      .cls-1 {
        fill: none;
      }

      .cls-2 {
        fill: #1d1d1b;
      }

      .cls-3 {
        clip-path: url(#clippath);
      }
    </style>
    <clipPath id="clippath">
      <rect class="cls-1" width="841.89" height="595.28"/>
    </clipPath>
  </defs>
  <!-- Generator: Adobe Illustrator 28.6.0, SVG Export Plug-In . SVG Version: 1.2.0 Build 709)  -->
  <g>
    <g id="Ebene_1">
      <g>
        <path d="M62.85,308.66h-5.96v-98.4h41.99v1.11h-36.03v31.49h36.03v1.11h-36.03v64.7Z"/>
        <path d="M162.11,308.66h-5.34l-26.21-56.46h-6.58v56.46h-5.34v-87.82h14.54c8.45,0,15.28,7.13,15.28,15.74,0,7.38-5.09,14.02-12.67,15.5l26.34,56.58ZM123.97,251.22h9.19c6.21,0,9.44-6.4,9.44-14.64,0-8.98-4.22-14.76-9.44-14.76h-9.19v29.4Z"/>
        <path d="M199.5,267.21h-15.65l-9.81,41.45h-.99l20.62-87.95,21.49,87.95h-5.47l-10.19-41.45ZM199.25,266.23l-7.7-31.98-7.45,31.98h15.16Z"/>
        <path d="M274.16,282.46s0,26.2-21.62,26.2-21.87-26.2-21.87-26.2v-61.62h5.34v61.5c0,11.19.25,25.34,16.52,25.34,20.13,0,20.62-25.21,20.62-25.21v-61.62h1.12l-.12,61.62Z"/>
        <path d="M494.04,251.22c8.08,4.55,20.62,13.41,20.62,29.15s-12.92,28.17-26.96,28.29c-14.78.12-22.36-14.15-22.36-14.15h1.24s7.83,13.16,21.12,12.91c9.19-.12,22.24-7.01,22.24-25.83,0-12.18-11.43-20.17-17.77-23.62-12.05-6.64-25.22-13.28-25.22-26.32,0-11.07,9.57-21.28,21.62-21.4,12.67-.25,17.89,13.78,17.89,13.78h-1.24s-5.34-13.16-16.52-12.92c-9.69.12-17.77,8.73-17.77,18.57s13.42,16.24,23.11,21.53Z"/>
        <path d="M576.9,293.9h.87c-5.59,9.96-12.3,14.76-20,14.76-17.64,0-27.46-23.99-27.46-43.3,0-11.19,2.61-22.39,7.95-31.37,3.85-6.52,10.68-13.16,19.5-13.16,7.7,0,14.54,5.04,20,14.76h-1.12c-4.84-9.1-12.92-13.9-18.88-13.9-12.3,0-21.12,23.37-21.12,42.68s8.82,43.54,21.12,43.54c5.96,0,14.29-4.92,19.13-14.02Z"/>
        <path d="M640.63,220.84l-.12,87.82h-5.22v-57.69h-32.3v57.69h-5.34v-87.82h5.34v29.15h32.3v-29.15h5.34Z"/>
        <path d="M713.43,265.24c0,18.94-9.07,43.42-27.21,43.42-19.13,0-27.33-27.55-27.33-43.42,0-19.06,8.57-44.4,27.33-44.4s27.21,28.54,27.21,44.4ZM707.21,264.38c0-19.07-8.2-42.8-21-42.68-13.42.12-21.12,23.62-21,42.68.12,19.43,8.2,43.42,21.12,43.42s20.87-24.35,20.87-43.42ZM677.4,204.72c1.74,0,3.48,1.35,3.48,3.2s-1.62,3.57-3.48,3.57c-1.74,0-3.35-1.6-3.35-3.57,0-1.72,1.49-3.2,3.35-3.2ZM692.8,204.72c1.74,0,3.35,1.35,3.35,3.2s-1.49,3.57-3.35,3.57c-1.74,0-3.35-1.6-3.35-3.57,0-1.72,1.49-3.2,3.35-3.2Z"/>
        <path d="M735.04,222.93v85.73h-.99v-87.82h5.84l36.65,73.68v-73.68h.99v87.82l-42.49-85.73Z"/>
      </g>
      <g class="cls-3">
        <path class="cls-2" d="M347.56,398.02c-3.12-7.84-6.02-15.76-8.88-23.7-5.04-13.97-9.74-28.04-13.54-42.4-1.69-6.37-2.67-12.85-2.67-19.46.01-14.29,6.3-25.15,17.94-33.18,6.38-4.4,13.58-6.58,21.01-8.27,6.19-1.41,12.46-2.11,18.79-2.5,7.48-.46,12.17-.69,19.62-1.49,6.29-.77,12.77-4.43,16.18-8.49,3.37-4.02,5.35-8.85,5.96-13.41.42-3.16.37-8.62-.41-11.68-2.29-9.07-2.82-11.32-7.72-18.26-.68-.96-1.66-3.03-2.52-3.82-.11-.1-.27-.14-.51-.26-1.73,2.66-3.42,5.38-5.23,8-4.58,6.67-9.67,12.89-16.28,17.69-7.01,5.09-14.74,8.44-23.38,9.62-7.64,1.04-13.48-1.72-17.63-8.1-1-1.53-2.02-2.14-3.92-2.14-4.36,0-8.48-3.86-9.09-8.64-.38-2.96-1.8-4.82-4.17-6.35-1.56-1.01-3.02-2.24-4.32-3.57-1.51-1.55-1.38-2.05.35-3.59-.31-2.61-2.04-4.42-3.65-6.4-2.98,1.22-5.96,1.36-8.99.52-4.07-1.14-6.38-4.14-6.58-8.35-.21-4.33.7-8.56,1.05-12.84.33-3.96.37-7.95.54-11.93.13-2.29.42-2.05-2.18-3.05-6.86-2.47-12.92-6.31-17.91-11.66-2.18-2.34-4.13-4.9-6.11-7.41-.99-1.25-.65-2.42.85-2.86,1.03-.3,4.14-1.64,5.94-1.95,3.07-.54,8.02-.76,12.28,1.35,5.06,2.51,7.24,4.82,9.3,11.06.93,2.8.72,7.4.19,11.87,2.55.95,5.29,1.39,8.11,1.56,8.94.53,17.38-1.39,25.51-5,10.72-4.75,20.5-11,29.74-18.15.65-.51,1.42-.88,2.13-1.31l-.03-.03c-.27.35-.47.78-.81,1.05-10.7,8.62-22.2,15.89-35.07,20.87-7.56,2.93-15.36,4.1-23.42,3.4-2-.18-3.98-.64-6.07-.98,0,0-.36.23-.31,1.44-.57,5.74-1.11,10.96-1.63,16.71-.22,2.48-.55,4.99-.39,7.46.24,3.73,2.04,5.55,5.66,6.49,1.93.51,3.83.62,5.76,0,.86-.28,1.01-.26,1.95-.83.84-.5.88-.76,1.5-1.24,2.46-1.89,3.56-4.35,8.23-3.7,1.61.23,3.13-.47,4.62-1.11,1.76-.76,2.13-3.24,2.08-5.15-.41-4.4-4.59-4.99-6.84-5.69-3.73-1.15-7.77,5.36-7.18,6.36-.05,1.39-1.06.62-.74-.33,1.49-4.54,3.98-5.75,5.69-6.5,3.48-1.54,5.86-.62,7.99.61,1.8,1.04,3.16,3.46,3.19,6.04.02,2.51-.44,5.47-2.74,6.83-1.77,1.04-3.87,1.94-5.9,1.42-3.77-.97-5.02,1.56-8.58,4.54,1.89,2.21,4.26,4.18,4.37,7.34,4.06,1.47,7.81,1.85,11.39-.67,1.12-.79,2.27-1.21,3.73-.65,5.28,2.03,10.82,3.01,16.39,3.88.85.13,1.71.28,2.51.55.76.26.86,1.23.17,1.65-.45.28-1.01.47-1.54.52-8.81.83-17.63,1.25-26.41-.2-1.96-.33-3.86-1.05-6.27-1.73,1.05.74,1.76,1.27,2.5,1.75.99.63,2.01,1.21,3,1.83,1.55.96,2.47,2.31,2.79,4.13.21,1.22.51,2.46.94,3.62,1.08,2.91,3.61,4.54,7.14,4.57-.73-.88-.91-1.57-1.27-2.49-.82-2.12.19-5.9,2.08-7.13,3.11-2.03,5.77-2.42,9.43-2.81,1.55-.17,3.13-.25,4.67-.12,2.46.21,3.09,1.43,2.02,3.69-.33.7-.75,1.39-1.25,1.97-3.03,3.52-6.32,6.72-10.79,8.41-.42.16-.82.39-1.23.58,2.39,5.35,8.69,9.02,14.72,8.61,11.24-.76,20.75-5.54,28.94-12.99,6.71-6.11,11.75-13.57,16.29-21.37.11-.2.15-.44.3-.91-.65-.61-1.35-1.32-2.1-1.97-5.02-4.29-9.47-9.08-13.25-14.51-3.03-4.36-5.34-9.02-6.19-14.29-1.69-10.47,3.34-19.85,12.05-24.35,6.21-3.21,12.19-1.77,16.4,3.81,2.93,3.88,3.99,8.4,4.62,13.11,1.13,8.51.07,16.88-2.6,24.86-1.58,4.72-4.19,9.1-6.07,13.91.95.97,2.06,2.16,3.23,3.29,7.03,6.77,11.56,13.3,14.31,23.07,2.76,9.81-.73,20.01-9.08,25.86-5.76,4.03-11.04,6.34-19.13,7.13-7.92.86-15.88,1.29-23.83,1.9-12.01.92-20.78,4.16-26.75,6.8-7.24,4.01-12.95,8.81-17.91,15.93-5,7.18-6.7,14.87-6.23,23.43.43,7.86.86,14.17,3.12,21.67,5.95,19.76,10.36,40.04,18,59.21ZM409.78,207.99c.6-1.11,1-1.78,1.33-2.48,3.08-6.45,4.11-11.94,5.61-18.91.75-3.09.8-11.71-.8-17.34-.93-3.28-2.98-6.98-5.53-9.28-5.89-5.31-10.6-3.58-13.35-2.43-3.61,2.04-5.14,4.49-7.05,9.82-2.28,6.37-1.3,12.48,1.55,18.4,2.46,5.11,5.91,9.58,9.7,13.74,2.61,2.87,5.51,5.49,8.54,8.47M309.94,171.72c0-4.57-1.47-9.82-3.43-12.55-1.87-2.6-4.43-4.42-7.23-5.96-1.91-1.06-5.04-1.46-8.67-1.08-2.62.27-3.42.83-4.68,1.5,5.76,8.94,14.28,14.66,24,18.1M356.55,224.63c-.99-1.81-6.03-1.75-6.74-1.61-1.39.28-.76.21-2.26.79-2.94,1.66-4.08,5.62-2.45,8.49,1.48,1.39,2.78,1.41,4.4.62,2.79-1.44,4.62-2.2,6.8-4.53,1.4-1.49.86-2.65.25-3.75M331.89,216.71c3.5,1.79,13.99,2.17,16.6.88q-3.1-2.15-5.26-3.12c-.65-.19-1.57-.08-2.16.26-2.86,1.6-5.81,2.59-9.18,1.98"/>
        <path class="cls-2" d="M361.23,192.74s-1.38-8.88,1.34-14.32c2.54-5.08,11.42-10.48,13.59-12.45,0,0-8.18,7.18-12.27,12.62-2.43,3.23-2.72,14.12-2.66,14.15"/>
      </g>
    </g>
  </g>
</svg>